{
    "asset" : {
        "generator" : "Khronos glTF Blender I/O v1.7.33",
        "version" : "2.0"
    },
    "scene" : 0,
    "scenes" : [
        {
            "name" : "Scene",
            "nodes" : [
                22,
                23
            ]
        }
    ],
    "nodes" : [
        {
            "mesh" : 0,
            "name" : "Cabeza.001",
            "rotation" : [
                0.7071067094802856,
                0,
                0,
                0.7071068286895752
            ],
            "scale" : [
                1.2852261066436768,
                1.2765859365463257,
                1.2765859365463257
            ],
            "translation" : [
                0,
                1.5983426570892334,
                -0.01213174406439066
            ]
        },
        {
            "mesh" : 1,
            "name" : "Cuerpo"
        },
        {
            "mesh" : 2,
            "name" : "Cuerpo.001"
        },
        {
            "name" : "Cuerpo.002"
        },
        {
            "name" : "export.000",
            "rotation" : [
                0.7071067094802856,
                0,
                0,
                0.7071068286895752
            ],
            "scale" : [
                1.2765859365463257,
                1.2765859365463257,
                1.2765859365463257
            ],
            "translation" : [
                0,
                1.5983426570892334,
                -0.018975913524627686
            ]
        },
        {
            "mesh" : 3,
            "name" : "export.001",
            "rotation" : [
                0.7071067094802856,
                0,
                0,
                0.7071068286895752
            ],
            "scale" : [
                1.2765859365463257,
                1.2765859365463257,
                1.2765859365463257
            ],
            "translation" : [
                0,
                1.5983426570892334,
                -0.018975913524627686
            ]
        },
        {
            "name" : "neck",
            "rotation" : [
                0,
                0,
                1.6543612251060553e-24,
                1
            ],
            "translation" : [
                1.8336980529820253e-25,
                0.0259380005300045,
                0.27111995220184326
            ]
        },
        {
            "name" : "l_wrist",
            "rotation" : [
                9.393589239792277e-10,
                -0.13052618503570557,
                1.5029741007310804e-08,
                0.9914448857307434
            ],
            "scale" : [
                1.0000001192092896,
                1.000000238418579,
                1.000000238418579
            ],
            "translation" : [
                0.2348049283027649,
                -0.0034849941730499268,
                1.1920928955078125e-07
            ]
        },
        {
            "children" : [
                7
            ],
            "name" : "l_elbow",
            "rotation" : [
                -0.041380468755960464,
                -0.04320439696311951,
                -0.13124212622642517,
                0.989543616771698
            ],
            "scale" : [
                0.9999999403953552,
                1,
                1.0000001192092896
            ],
            "translation" : [
                0.2555258870124817,
                0.002775028347969055,
                2.9802322387695312e-08
            ]
        },
        {
            "children" : [
                8
            ],
            "name" : "l_shoulder",
            "rotation" : [
                0.05112673342227936,
                0.6074960827827454,
                0.039230864495038986,
                0.7917041778564453
            ],
            "scale" : [
                1.000000238418579,
                1.0000001192092896,
                1.0000001192092896
            ],
            "translation" : [
                0.12222100794315338,
                0.04862299934029579,
                0.20931994915008545
            ]
        },
        {
            "name" : "r_wrist",
            "rotation" : [
                6.544159436572272e-09,
                0.0871557742357254,
                -3.73952024901314e-09,
                0.9961947202682495
            ],
            "scale" : [
                0.9999999403953552,
                1.000000238418579,
                1.0000001192092896
            ],
            "translation" : [
                -0.23480486869812012,
                -0.003483995795249939,
                1.1920928955078125e-07
            ]
        },
        {
            "children" : [
                10
            ],
            "name" : "r_elbow",
            "rotation" : [
                -0.041380468755960464,
                0.04320439696311951,
                0.13124212622642517,
                0.989543616771698
            ],
            "scale" : [
                0.9999999403953552,
                1,
                1.0000001192092896
            ],
            "translation" : [
                -0.2555258870124817,
                0.002775028347969055,
                2.9802322387695312e-08
            ]
        },
        {
            "children" : [
                11
            ],
            "name" : "r_shoulder",
            "rotation" : [
                0.05112673342227936,
                -0.6074960827827454,
                -0.039230864495038986,
                0.7917041778564453
            ],
            "scale" : [
                1.000000238418579,
                1.0000001192092896,
                1.0000001192092896
            ],
            "translation" : [
                -0.12222100794315338,
                0.04862299934029579,
                0.20931994915008545
            ]
        },
        {
            "children" : [
                6,
                9,
                12
            ],
            "name" : "spine",
            "rotation" : [
                0,
                -9.926167350636332e-24,
                2.2424777070806425e-17,
                1
            ],
            "translation" : [
                4.1016511679605426e-18,
                -0.0005469921743497252,
                0.16220176219940186
            ]
        },
        {
            "name" : "l_ankle",
            "rotation" : [
                -2.886674836509123e-42,
                -8.72725487272927e-19,
                5.529500959894221e-16,
                1
            ],
            "translation" : [
                -5.551116446614763e-17,
                0.017902009189128876,
                -0.3879010081291199
            ]
        },
        {
            "children" : [
                14
            ],
            "name" : "l_knee",
            "rotation" : [
                6.617444900424222e-24,
                -7.085873221512884e-09,
                7.084259401324289e-09,
                1
            ],
            "translation" : [
                7.719427763674958e-09,
                0.017642999067902565,
                -0.3942069709300995
            ]
        },
        {
            "children" : [
                15
            ],
            "name" : "l_thigh",
            "rotation" : [
                -0.5017672777175903,
                -0.49822404980659485,
                -0.5017696022987366,
                0.49822643399238586
            ],
            "scale" : [
                1,
                1.000000238418579,
                1.000000238418579
            ],
            "translation" : [
                -0.0010207731975242496,
                -0.12259729206562042,
                0.08148043602705002
            ]
        },
        {
            "name" : "r_ankle",
            "rotation" : [
                -9.472777618835763e-43,
                -1.1140430108683754e-16,
                1.7749154010822605e-15,
                1
            ],
            "translation" : [
                -1.2490011674010971e-16,
                0.017902009189128876,
                -0.3879010081291199
            ]
        },
        {
            "children" : [
                17
            ],
            "name" : "r_knee",
            "rotation" : [
                -1.3877771264202206e-17,
                -7.085873221512884e-09,
                7.084262065859548e-09,
                1
            ],
            "translation" : [
                7.719427763674958e-09,
                0.017642991617321968,
                -0.3942069709300995
            ]
        },
        {
            "children" : [
                18
            ],
            "name" : "r_thigh",
            "rotation" : [
                -0.5017672777175903,
                -0.49822404980659485,
                -0.5017696022987366,
                0.49822643399238586
            ],
            "scale" : [
                1,
                1.000000238418579,
                1.000000238418579
            ],
            "translation" : [
                -0.0010207851883023977,
                -0.12259653955698013,
                -0.08148156851530075
            ]
        },
        {
            "children" : [
                16,
                19
            ],
            "name" : "hip",
            "rotation" : [
                0.5017673373222351,
                0.4982241094112396,
                0.5017695426940918,
                0.49822646379470825
            ],
            "scale" : [
                1.000000238418579,
                1.000000238418579,
                1
            ],
            "translation" : [
                1.4037675864520547e-16,
                9.313178672698541e-09,
                0.018361687660217285
            ]
        },
        {
            "children" : [
                13,
                20
            ],
            "name" : "root",
            "rotation" : [
                -0.7071068286895752,
                -1.585671154422917e-17,
                -1.585671154422917e-17,
                0.7071068286895752
            ],
            "translation" : [
                -4.077118645353445e-18,
                0.9880683422088623,
                0.0003450043732300401
            ]
        },
        {
            "children" : [
                0,
                1,
                2,
                3,
                4,
                5,
                21
            ],
            "name" : "Armature",
            "scale" : [
                3.7463419437408447,
                3.7463419437408447,
                3.7463419437408447
            ],
            "translation" : [
                0,
                0,
                -0.043147530406713486
            ]
        },
        {
            "mesh" : 4,
            "name" : "Cube",
            "scale" : [
                0.011992794461548328,
                0.011992794461548328,
                0.011992794461548328
            ],
            "translation" : [
                0.006055167876183987,
                0,
                -0.16884112358093262
            ]
        }
    ],
    "materials" : [
        {
            "doubleSided" : true,
            "name" : "1m4g3n-texura-An1we.png",
            "pbrMetallicRoughness" : {}
        },
        {
            "doubleSided" : true,
            "emissiveFactor" : [
                0.017641952261328697,
                0.017641952261328697,
                0.017641952261328697
            ],
            "name" : "Borde",
            "pbrMetallicRoughness" : {}
        }
    ],
    "meshes" : [
        {
            "name" : "Cabeza.002",
            "primitives" : [
                {
                    "attributes" : {
                        "POSITION" : 0,
                        "NORMAL" : 1,
                        "TEXCOORD_0" : 2,
                        "COLOR_0" : 3
                    },
                    "indices" : 4,
                    "material" : 0
                },
                {
                    "attributes" : {
                        "POSITION" : 5,
                        "NORMAL" : 6,
                        "TEXCOORD_0" : 7,
                        "COLOR_0" : 8
                    },
                    "indices" : 9,
                    "material" : 1
                }
            ]
        },
        {
            "name" : "Cuerpo",
            "primitives" : [
                {
                    "attributes" : {
                        "POSITION" : 10,
                        "NORMAL" : 11,
                        "TEXCOORD_0" : 12
                    },
                    "indices" : 13,
                    "material" : 0
                }
            ]
        },
        {
            "name" : "Cuerpo.005",
            "primitives" : [
                {
                    "attributes" : {
                        "POSITION" : 14,
                        "NORMAL" : 15,
                        "TEXCOORD_0" : 16
                    },
                    "indices" : 17,
                    "material" : 0
                }
            ]
        },
        {
            "name" : "export.001",
            "primitives" : [
                {
                    "attributes" : {
                        "POSITION" : 18,
                        "NORMAL" : 19,
                        "TEXCOORD_0" : 20
                    },
                    "indices" : 21,
                    "material" : 0
                }
            ]
        },
        {
            "name" : "Cube.001",
            "primitives" : [
                {
                    "attributes" : {
                        "POSITION" : 22,
                        "NORMAL" : 23,
                        "TEXCOORD_0" : 24
                    },
                    "indices" : 25,
                    "material" : 0
                }
            ]
        }
    ],
    "accessors" : [
        {
            "bufferView" : 0,
            "componentType" : 5126,
            "count" : 450,
            "max" : [
                0.09279143810272217,
                0.1024443656206131,
                0.12680494785308838
            ],
            "min" : [
                -0.09279143810272217,
                -0.05109696462750435,
                -0.05215871334075928
            ],
            "type" : "VEC3"
        },
        {
            "bufferView" : 1,
            "componentType" : 5126,
            "count" : 450,
            "type" : "VEC3"
        },
        {
            "bufferView" : 2,
            "componentType" : 5126,
            "count" : 450,
            "type" : "VEC2"
        },
        {
            "bufferView" : 3,
            "componentType" : 5123,
            "count" : 450,
            "normalized" : true,
            "type" : "VEC4"
        },
        {
            "bufferView" : 4,
            "componentType" : 5123,
            "count" : 1485,
            "type" : "SCALAR"
        },
        {
            "bufferView" : 5,
            "componentType" : 5126,
            "count" : 450,
            "max" : [
                0.09461894631385803,
                0.10433437675237656,
                0.12880373001098633
            ],
            "min" : [
                -0.09461894631385803,
                -0.05243074521422386,
                -0.0535661056637764
            ],
            "type" : "VEC3"
        },
        {
            "bufferView" : 6,
            "componentType" : 5126,
            "count" : 450,
            "type" : "VEC3"
        },
        {
            "bufferView" : 7,
            "componentType" : 5126,
            "count" : 450,
            "type" : "VEC2"
        },
        {
            "bufferView" : 8,
            "componentType" : 5123,
            "count" : 450,
            "normalized" : true,
            "type" : "VEC4"
        },
        {
            "bufferView" : 9,
            "componentType" : 5123,
            "count" : 1485,
            "type" : "SCALAR"
        },
        {
            "bufferView" : 10,
            "componentType" : 5126,
            "count" : 1244,
            "max" : [
                0.3574415445327759,
                1.4660001993179321,
                0.11372073739767075
            ],
            "min" : [
                -0.34828710556030273,
                0.0035200559068471193,
                -0.12197844684123993
            ],
            "type" : "VEC3"
        },
        {
            "bufferView" : 11,
            "componentType" : 5126,
            "count" : 1244,
            "type" : "VEC3"
        },
        {
            "bufferView" : 12,
            "componentType" : 5126,
            "count" : 1244,
            "type" : "VEC2"
        },
        {
            "bufferView" : 13,
            "componentType" : 5123,
            "count" : 3846,
            "type" : "SCALAR"
        },
        {
            "bufferView" : 14,
            "componentType" : 5126,
            "count" : 118,
            "max" : [
                0.1761225014925003,
                1.0074821710586548,
                0.12847821414470673
            ],
            "min" : [
                -0.1558869481086731,
                0.7413085699081421,
                -0.15039639174938202
            ],
            "type" : "VEC3"
        },
        {
            "bufferView" : 15,
            "componentType" : 5126,
            "count" : 118,
            "type" : "VEC3"
        },
        {
            "bufferView" : 16,
            "componentType" : 5126,
            "count" : 118,
            "type" : "VEC2"
        },
        {
            "bufferView" : 17,
            "componentType" : 5123,
            "count" : 234,
            "type" : "SCALAR"
        },
        {
            "bufferView" : 18,
            "componentType" : 5126,
            "count" : 1268,
            "max" : [
                0.12690246105194092,
                0.12450195848941803,
                0.25864624977111816
            ],
            "min" : [
                -0.11206082999706268,
                -0.16227224469184875,
                -0.1287473440170288
            ],
            "type" : "VEC3"
        },
        {
            "bufferView" : 19,
            "componentType" : 5126,
            "count" : 1268,
            "type" : "VEC3"
        },
        {
            "bufferView" : 20,
            "componentType" : 5126,
            "count" : 1268,
            "type" : "VEC2"
        },
        {
            "bufferView" : 21,
            "componentType" : 5123,
            "count" : 4698,
            "type" : "SCALAR"
        },
        {
            "bufferView" : 22,
            "componentType" : 5126,
            "count" : 536,
            "max" : [
                0.495172381401062,
                434.85870361328125,
                40.83372116088867
            ],
            "min" : [
                -1.5048484802246094,
                303.86480712890625,
                12.851091384887695
            ],
            "type" : "VEC3"
        },
        {
            "bufferView" : 23,
            "componentType" : 5126,
            "count" : 536,
            "type" : "VEC3"
        },
        {
            "bufferView" : 24,
            "componentType" : 5126,
            "count" : 536,
            "type" : "VEC2"
        },
        {
            "bufferView" : 25,
            "componentType" : 5123,
            "count" : 804,
            "type" : "SCALAR"
        }
    ],
    "bufferViews" : [
        {
            "buffer" : 0,
            "byteLength" : 5400,
            "byteOffset" : 0
        },
        {
            "buffer" : 0,
            "byteLength" : 5400,
            "byteOffset" : 5400
        },
        {
            "buffer" : 0,
            "byteLength" : 3600,
            "byteOffset" : 10800
        },
        {
            "buffer" : 0,
            "byteLength" : 3600,
            "byteOffset" : 14400
        },
        {
            "buffer" : 0,
            "byteLength" : 2970,
            "byteOffset" : 18000
        },
        {
            "buffer" : 0,
            "byteLength" : 5400,
            "byteOffset" : 20972
        },
        {
            "buffer" : 0,
            "byteLength" : 5400,
            "byteOffset" : 26372
        },
        {
            "buffer" : 0,
            "byteLength" : 3600,
            "byteOffset" : 31772
        },
        {
            "buffer" : 0,
            "byteLength" : 3600,
            "byteOffset" : 35372
        },
        {
            "buffer" : 0,
            "byteLength" : 2970,
            "byteOffset" : 38972
        },
        {
            "buffer" : 0,
            "byteLength" : 14928,
            "byteOffset" : 41944
        },
        {
            "buffer" : 0,
            "byteLength" : 14928,
            "byteOffset" : 56872
        },
        {
            "buffer" : 0,
            "byteLength" : 9952,
            "byteOffset" : 71800
        },
        {
            "buffer" : 0,
            "byteLength" : 7692,
            "byteOffset" : 81752
        },
        {
            "buffer" : 0,
            "byteLength" : 1416,
            "byteOffset" : 89444
        },
        {
            "buffer" : 0,
            "byteLength" : 1416,
            "byteOffset" : 90860
        },
        {
            "buffer" : 0,
            "byteLength" : 944,
            "byteOffset" : 92276
        },
        {
            "buffer" : 0,
            "byteLength" : 468,
            "byteOffset" : 93220
        },
        {
            "buffer" : 0,
            "byteLength" : 15216,
            "byteOffset" : 93688
        },
        {
            "buffer" : 0,
            "byteLength" : 15216,
            "byteOffset" : 108904
        },
        {
            "buffer" : 0,
            "byteLength" : 10144,
            "byteOffset" : 124120
        },
        {
            "buffer" : 0,
            "byteLength" : 9396,
            "byteOffset" : 134264
        },
        {
            "buffer" : 0,
            "byteLength" : 6432,
            "byteOffset" : 143660
        },
        {
            "buffer" : 0,
            "byteLength" : 6432,
            "byteOffset" : 150092
        },
        {
            "buffer" : 0,
            "byteLength" : 4288,
            "byteOffset" : 156524
        },
        {
            "buffer" : 0,
            "byteLength" : 1608,
            "byteOffset" : 160812
        }
    ],
    "buffers" : [
        {
            "byteLength" : 162420,
            "uri" : "data:application/octet-stream;base64,"
        }
    ]
}
