<?xml version="1.0" encoding="utf-8"?>
<!-- Generator: Adobe Illustrator 25.2.1, SVG Export Plug-In . SVG Version: 6.00 Build 0)  -->
<svg version="1.1" id="Capa_1" xmlns="http://www.w3.org/2000/svg" xmlns:xlink="http://www.w3.org/1999/xlink" x="0px" y="0px"
	 viewBox="0 0 466 419.6" style="enable-background:new 0 0 466 419.6;" xml:space="preserve">
<style type="text/css">
	.st0{fill:url(#SVGID_1_);}
	.st1{fill:#FFFFFF;}
	.st2{fill:url(#SVGID_2_);}
</style>
<g>
	
		<linearGradient id="SVGID_1_" gradientUnits="userSpaceOnUse" x1="62.019" y1="64.4948" x2="486.3482" y2="422.7839" gradientTransform="matrix(1 0 0 -1 0 419.89)">
		<stop  offset="0" style="stop-color:#CC89BA"/>
		<stop  offset="0.1453" style="stop-color:#85569D"/>
		<stop  offset="0.6062" style="stop-color:#3A2783"/>
		<stop  offset="1" style="stop-color:#282E67"/>
	</linearGradient>
	<path class="st0" d="M87.9-29.6c-0.6,4.7,1,6.6,0.8,19.5c-0.1,7.6-1.2,34.2-13.5,60c-8.9,18.8-18.1,24.7-30,39.8
		c-8.6,11-37.8,47-39,85.5c-1.9,62.5,58.3,81.7,50.2,137.3c-1.4,9.9-7.4,36.6,6.3,62.3c0.2,0.5,2.9,5.3,5.7,8.9
		c25.2,32.3,108.1,16.7,132.8,12c46.4-8.8,93.3-24.6,126-16.5c11.3,2.8,22.5,6,22.5,6c25.9,7.4,31.5,10.6,42.8,12.8
		c0,0,18.2,3.4,43.5-1.5c39.4-7.7,80.3-52.2,102.6-92.1c47.6-85.2,46.2-218.9-33.4-307C441.7-73,357-82.8,310.7-88.1
		C205.6-100.3,92.5-66.1,87.9-29.6z"/>
</g>
<circle class="st1" cx="311.6" cy="96.3" r="0.3"/>
<circle class="st1" cx="353.5" cy="159.5" r="0.3"/>
<circle class="st1" cx="441" cy="203.3" r="0.3"/>
<circle class="st1" cx="422.3" cy="143.4" r="0.3"/>
<circle class="st1" cx="441.7" cy="101" r="0.3"/>
<circle class="st1" cx="311.9" cy="37.2" r="0.3"/>
<circle class="st1" cx="249.5" cy="85.9" r="0.3"/>
<circle class="st1" cx="426.5" cy="50.4" r="0.3"/>
<circle class="st1" cx="353.8" cy="67.4" r="0.3"/>
<circle class="st1" cx="419.5" cy="12.9" r="0.3"/>
<circle class="st1" cx="373.3" cy="96.3" r="0.3"/>
<circle class="st1" cx="403.7" cy="95.9" r="0.3"/>
<circle class="st1" cx="383.7" cy="143.7" r="0.3"/>
<circle class="st1" cx="389.8" cy="173.2" r="0.3"/>
<circle class="st1" cx="441.3" cy="172.9" r="0.3"/>
<circle class="st1" cx="287.7" cy="119" r="0.3"/>
<linearGradient id="SVGID_2_" gradientUnits="userSpaceOnUse" x1="590.4361" y1="46.14" x2="590.4361" y2="46.14">
	<stop  offset="0" style="stop-color:#CC89BA"/>
	<stop  offset="0.1453" style="stop-color:#85569D"/>
	<stop  offset="0.6062" style="stop-color:#3A2783"/>
	<stop  offset="1" style="stop-color:#282E67"/>
</linearGradient>
<path class="st2" d="M590.4,46.1"/>
</svg>
