<?xml version="1.0" encoding="utf-8"?>
<!-- Generator: Adobe Illustrator 25.2.1, SVG Export Plug-In . SVG Version: 6.00 Build 0)  -->
<svg version="1.1" id="Capa_1" xmlns="http://www.w3.org/2000/svg" xmlns:xlink="http://www.w3.org/1999/xlink" x="0px" y="0px"
	 viewBox="0 0 2106 819" style="enable-background:new 0 0 2106 819;" xml:space="preserve">
<style type="text/css">
	.st0{fill:url(#SVGID_1_);}
</style>
<g>
	
		<linearGradient id="SVGID_1_" gradientUnits="userSpaceOnUse" x1="339.1865" y1="-396.4172" x2="1036.8036" y2="885.3934" gradientTransform="matrix(-1 0 0 1 1667.7222 332.3151)">
		<stop  offset="0" style="stop-color:#CB89BB"/>
		<stop  offset="0.1453" style="stop-color:#85589F"/>
		<stop  offset="0.6062" style="stop-color:#3A2B7F"/>
		<stop  offset="1" style="stop-color:#293166"/>
	</linearGradient>
	<path class="st0" d="M1021,678.3c103.2-0.5,159.5,12.3,345,46.3c545,99.8,607.7,89.1,651,56.6c65.8-49.4,65.9-133.5,66-285.4
		c0.1-172.4,0.2-279.5-80-339.4c-164.1-122.6-451.2,111-726.9-27.1C1196.4,89.4,1154.6,36.9,1057,33c-107.8-4.4-160.8,55.2-252,95.1
		C510.9,256.9,216.7,8.3,70,125.5C22.8,163.2,21.5,256,19,441.7c-2.5,184.2-3.3,276.2,52,320.5c76.9,61.6,242.9,32,575-27.4
		C842.4,699.7,892.2,679,1021,678.3z"/>
</g>
</svg>
